<svg width="44" height="44" viewBox="0 0 44 44" fill="none" xmlns="http://www.w3.org/2000/svg">
<path d="M21.875 0C9.79492 0 0 9.79492 0 21.875C0 33.9551 9.79492 43.75 21.875 43.75C33.9551 43.75 43.75 33.9551 43.75 21.875C43.75 9.79492 33.9551 0 21.875 0ZM22.1387 32.7148C16.7676 32.7148 13.6719 29.1406 13.6719 23.1982V20.6445C13.6719 14.6582 16.7676 11.0352 22.1338 11.0352C26.7383 11.0352 30.0781 13.999 30.0781 18.2324C30.0781 18.3594 29.9756 18.4619 29.8486 18.4619H27.0801C26.875 18.4619 26.709 18.3057 26.6895 18.1006C26.4941 15.6836 24.7363 14.0283 22.1484 14.0283C18.96 14.0283 17.1631 16.3965 17.1631 20.6445V23.2129C17.1631 27.3975 18.9648 29.7363 22.1484 29.7363C24.7266 29.7363 26.4795 28.1885 26.6895 25.9375C26.709 25.7373 26.875 25.5811 27.0801 25.5811H29.8535C29.9805 25.5811 30.083 25.6836 30.083 25.8105C30.083 29.8437 26.7285 32.7148 22.1387 32.7148Z" fill="#CEE9B6"/>
</svg>
