<svg width="38" height="38" viewBox="0 0 38 38" fill="none" xmlns="http://www.w3.org/2000/svg">
<path d="M21.0833 10.6667C25.4646 10.6667 27.3333 12.5354 27.3333 16.9167H31.5C31.5 10.1979 27.8021 6.5 21.0833 6.5V10.6667ZM28.2125 22.0063C27.8122 21.6424 27.2861 21.4484 26.7454 21.4651C26.2047 21.4818 25.6917 21.708 25.3146 22.0958L20.3292 27.2229C19.1292 26.9938 16.7167 26.2417 14.2333 23.7646C11.75 21.2792 10.9979 18.8604 10.775 17.6688L15.8979 12.6813C16.2863 12.3044 16.5128 11.7913 16.5295 11.2504C16.5462 10.7096 16.3519 10.1834 15.9875 9.78334L8.28959 1.31875C7.9251 0.917414 7.41851 0.673972 6.87741 0.640129C6.33631 0.606286 5.80334 0.784709 5.39167 1.1375L0.870841 5.01459C0.510656 5.37608 0.295673 5.85719 0.266674 6.36667C0.235424 6.8875 -0.360409 19.225 9.20626 28.7958C17.5521 37.1396 28.0063 37.75 30.8854 37.75C31.3063 37.75 31.5646 37.7375 31.6333 37.7333C32.1427 37.7048 32.6236 37.4889 32.9833 37.1271L36.8583 32.6042C37.2114 32.1928 37.3902 31.66 37.3567 31.1189C37.3233 30.5778 37.0802 30.071 36.6792 29.7063L28.2125 22.0063Z" fill="#CEE9B6"/>
</svg>
