<svg width="50" height="50" viewBox="0 0 50 50" fill="none" xmlns="http://www.w3.org/2000/svg">
<path fill-rule="evenodd" clip-rule="evenodd" d="M18.5725 17.4225H27.8575V22.0475C29.195 19.3875 32.625 16.9975 37.7775 16.9975C47.655 16.9975 50 22.2925 50 32.0075V50H40V34.22C40 28.6875 38.6625 25.5675 35.2575 25.5675C30.535 25.5675 28.5725 28.93 28.5725 34.2175V50H18.5725V17.4225ZM1.425 49.575H11.425V16.9975H1.425V49.575ZM12.8575 6.375C12.8579 7.21319 12.6916 8.04309 12.3685 8.81647C12.0453 9.58985 11.5716 10.2913 10.975 10.88C9.766 12.0816 8.12953 12.7541 6.425 12.75C4.72347 12.7489 3.09078 12.078 1.88 10.8825C1.28553 10.2918 0.813465 9.58956 0.490859 8.81608C0.168254 8.0426 0.00144783 7.21306 0 6.375C0 4.6825 0.675 3.0625 1.8825 1.8675C3.09221 0.670396 4.7256 -0.000748027 6.4275 6.25661e-07C8.1325 6.25661e-07 9.7675 0.672501 10.975 1.8675C12.18 3.0625 12.8575 4.6825 12.8575 6.375Z" fill="#CEE9B6"/>
</svg>
